Men in Black 3 2012 V2 HD TS XViD AC3-ADTRG

Agent J travels in time to MIB's early years in the 1960s, to stop an alien from assassinating his friend Agent K and changing history. 
 
http://www.imdb.com/title/tt1409024/

Source -  full Cam - Russans - Thanks, Amazing work on this  (except end credits)
Source -  full LiNe Audio    - Dragon Exclusive  Thanks, Awesome work bro    (except end credits)

Format                                   : AVI
Format/Info                              : Audio Video Interleave
File size                                : 1.40 GiB
Duration                                 : 1h 37mn
Overall bit rate                         : 2 056 Kbps

Video
ID                                       : 0
Format                                   : MPEG-4 Visual
Codec ID                                 : XVID
Bit rate                                 : 1 854 Kbps
Width                                    : 720 pixels
Height                                   : 352 pixels
Display aspect ratio                     : 2.045
Frame rate                               : 23.976 fps
Stream size                              : 1.27 GiB (90%)

Audio
ID                                       : 1
Format                                   : AC-3
Bit rate                                 : 192 Kbps
Channel(s)                               : 2 channels
Sampling rate                            : 48.0 KHz
Stream size                              : 134 MiB (9%)


Awesome Cam , Awesome LiNe, Awesome Sync  ..... awesome awesome awesome 


this is the full movie now!


Poster:

 
http://i.imgur.com/hYg8l.jpg


Screenshots:

 
http://i.imgur.com/OpiDn.jpg


ENJOY!